# xmcd
#
# Track frame offsets: 
#        150
#        13423
#        28307
#        40102
#        50426
#        65024
#        75990
#        90952
#        101537
#        114443
#        126692
#        137051
#        150515
#        161623
#        173801
#        184838
#        195123
#        207835
#        218530
#        228240
#        241313
#        253951
#        265697
#        277368
#        291232
#        303858
#
# Disc length: 4225 seconds
#
# Revision: 2
# Processed by: cddbd v1.5.2PL0 Copyright (c) Steve Scherf et al.
# Submitted via: ExactAudioCopyFreeDBPlugin 1.0
#
DISCID=6e107f1a
DTITLE=Erma Franklin - Piece of Her Heart:  The Epic and Shout Years, 
DTITLE=1961-1968
DYEAR=2009
DGENRE=Soul
TTITLE0=Big Boss Man
TTITLE1=Don't Catch the Dog's Bone
TTITLE2=Piece of My Heart
TTITLE3=Baby, What You Want Me to Do
TTITLE4=Open Up Your Soul
TTITLE5=I'm Just Not Ready for Love
TTITLE6=Don't Have the Right to Cry
TTITLE7=What Kind of Girl (Do You Think I Am)
TTITLE8=Don't Blame Me
TTITLE9=Hello Again
TTITLE10=It's Over
TTITLE11=Time After Time
TTITLE12=Each Night I Cry
TTITLE13=Dear Momma
TTITLE14=Never Again
TTITLE15=Don't Wait Too Long
TTITLE16=Have You Ever Had the Blues
TTITLE17=I Don't Want No Mama's Boy
TTITLE18=Abracadabra
TTITLE19=Love is Blind
TTITLE20=Never Let Me Go
TTITLE21=Pledging My Love
TTITLE22=The Man I Love
TTITLE23=Saving My Love for You
TTITLE24=Ev'rytime We Say Goodbye
TTITLE25=Detour Ahead
EXTD=
EXTT0=
EXTT1=
EXTT2=
EXTT3=
EXTT4=
EXTT5=
EXTT6=
EXTT7=
EXTT8=
EXTT9=
EXTT10=
EXTT11=
EXTT12=
EXTT13=
EXTT14=
EXTT15=
EXTT16=
EXTT17=
EXTT18=
EXTT19=
EXTT20=
EXTT21=
EXTT22=
EXTT23=
EXTT24=
EXTT25=
PLAYORDER=
